PathFileType	4	(x/y/z)	A01_PREF_T0018.trc
DataRate	CameraRate	NumFrames	NumMarkers	Units	OrigDataRate	OrigDataStartFrame	OrigNumFrames
240	240	10	48	mm	240	233	310
Frame#	Time	TOP_HEAD			R_AC			L_AC			R_ASIS			L_ASIS			R_PSIS			L_PSIS			SACRAL			L_IC			R_IC			L_GT			R_GT			R_LAT_KNEE			R_MED_KNEE			L_MED_KNEE			L_LAT_KNEE			R_TOE			L_TOE			R_1ST_MET			L_1ST_MET			L_5TH_MET			R_5TH_MET			R_LAT_ANK			R_MED_ANK			L_MED_ANK			L_LAT_ANK			L_HEEL_SUP			R_HEEL_SUP			L_HEEL_LAT			R_HEEL_LAT			L_HEEL_MED			R_HEEL_MED			R_LL_PROX_POST			R_LL_PROX_ANT			R_LL_DIST_ANT			R_LL_DIST_POST			R_THIGH_PROX_POST			R_THIGH_PROX_ANT			R_THIGH_DIST_ANT			R_THIGH_DIST_POST			L_PROS_PROX_ANT			L_PROS_PROX_POST			L_PROS_DIST_POST			L_PROS_DIST_ANT			L_THIGH_PROX_ANT			L_THIGH_PROX_POST			L_THIGH_DIST_POST			L_THIGH_DIST_ANT			
		X1	Y1	Z1	X2	Y2	Z2	X3	Y3	Z3	X4	Y4	Z4	X5	Y5	Z5	X6	Y6	Z6	X7	Y7	Z7	X8	Y8	Z8	X9	Y9	Z9	X10	Y10	Z10	X11	Y11	Z11	X12	Y12	Z12	X13	Y13	Z13	X14	Y14	Z14	X15	Y15	Z15	X16	Y16	Z16	X17	Y17	Z17	X18	Y18	Z18	X19	Y19	Z19	X20	Y20	Z20	X21	Y21	Z21	X22	Y22	Z22	X23	Y23	Z23	X24	Y24	Z24	X25	Y25	Z25	X26	Y26	Z26	X27	Y27	Z27	X28	Y28	Z28	X29	Y29	Z29	X30	Y30	Z30	X31	Y31	Z31	X32	Y32	Z32	X33	Y33	Z33	X34	Y34	Z34	X35	Y35	Z35	X36	Y36	Z36	X37	Y37	Z37	X38	Y38	Z38	X39	Y39	Z39	X40	Y40	Z40	X41	Y41	Z41	X42	Y42	Z42	X43	Y43	Z43	X44	Y44	Z44	X45	Y45	Z45	X46	Y46	Z46	X47	Y47	Z47	X48	Y48	Z48	

233	0.9698	706.95	1761.8	338.93	499.15	1568.1	595.95	442.71	1563.4	138.56	473.75	1099.1	578.15	457.7	1048.1	224.86	249.18	1105	463.81	253.87	1101.1	331.93	236.66	1072.9	396.25	423.36	1162.3	184.97	448.87	1203.8	586.93	404.58	968.21	183.69	412.57	987.53	617.93	433.42	577	545.95	462.37	579.07	416.17	565.42	569.8	371.5	530.43	603.67	220.42	589.61	66.671	451.05	402.42	80.441	236.89	504.35	55.65	403.18	331.3	98.418	306.06	283.11	122.53	187.48	475.08	46.569	538.27	366.12	117.61	509.31	372.73	121.92	405.64	275.75	239.58	314.61	237.44	254.88	253.9	147.69	259.64	310.27	263.87	90.599	453.78	132.49	235.49	277.64	269.16	67.057	488.53	149.14	222.12	338.29	272.63	63.138	427.29	329.81	407.5	546.63	400.17	393.06	561.33	397.29	319.62	542.08	340.36	325.88	534.58	378.91	843.14	593.19	446.73	866.73	603.27	456.83	775.94	592.22	392.15	755.2	579.86	523.51	509.28	224.2	476.9	540.02	222.47	437.79	490.42	232.23	486.79	466.75	231.82	516.52	847.1	216.2	448.37	834.53	195.02	479.06	764.46	202.48	541.47	777.22	220.48
234	0.97398	712.05	1762.9	338.38	504.25	1569.5	595.72	447.78	1564.3	138.35	478.65	1099.8	578.25	463.06	1049.5	224.89	254.25	1106.1	463.42	259.12	1102.2	331.6	241.83	1074	395.84	428.83	1163.6	184.94	453.85	1205	587.03	410.29	969.48	183.54	417	988.35	617.74	434.84	577.72	545.78	463.87	579.6	416	572.41	572.29	372.02	537.49	605.14	220.66	589.75	66.582	451.07	420.21	79.447	237.18	504.52	55.618	403.19	348.35	96.065	305.89	300.36	118.95	186.96	475.26	46.609	538.25	366.57	118.34	509.3	373.25	122.57	405.65	289.85	236.04	313.9	251.54	250.46	252.93	161.36	253.44	308.69	264.31	91.818	453.77	146.9	228.89	276.02	269.45	68.238	488.54	163.48	215.97	336.77	272.77	64.288	427.25	330.77	408.45	546.41	401.06	393.87	561.22	398.06	320.42	541.97	341.16	326.8	534.43	382.27	844.32	592.9	450.43	867.42	603.07	459.74	776.55	592.02	394.92	756.28	579.58	532.47	510.67	224.52	485.25	540.42	222.48	447.15	490.04	232.09	496.61	467.4	232	522.82	848.91	216.3	454.74	835.97	194.94	485.71	766.08	202.52	547.99	779.11	220.73
235	0.97816	717.15	1764	337.82	509.33	1570.8	595.47	452.84	1565.3	138.13	483.51	1100.5	578.35	468.45	1050.8	224.92	259.31	1107.2	462.99	264.38	1103.2	331.22	246.98	1075.1	395.38	434.32	1164.8	184.91	458.8	1206.1	587.11	416	970.71	183.38	421.38	989.17	617.55	436.26	578.44	545.62	465.38	580.14	415.83	579.27	574.68	372.53	544.41	606.55	220.91	589.89	66.498	451.09	438.11	78.563	237.44	504.69	55.587	403.2	365.54	93.755	305.71	317.76	115.44	186.43	475.45	46.651	538.24	367.04	119.09	509.3	373.79	123.24	405.66	304.05	232.45	313.21	265.77	246.01	251.99	175.21	247.11	307.15	264.75	93.063	453.75	161.5	222.19	274.46	269.75	69.443	488.56	178.01	209.72	335.29	272.91	65.464	427.22	331.73	409.43	546.19	401.95	394.69	561.11	398.83	321.23	541.86	341.96	327.73	534.29	385.64	845.5	592.61	454.11	868.12	602.87	462.64	777.17	591.81	397.69	757.36	579.3	541.31	512.03	224.85	493.5	540.76	222.5	456.44	489.6	231.97	506.35	468.01	232.18	529.05	850.65	216.42	461.06	837.37	194.87	492.28	767.64	202.57	554.43	780.93	220.99
236	0.98234	722.25	1765.1	337.26	514.39	1572.2	595.22	457.91	1566.2	137.9	488.34	1101.3	578.44	473.86	1052.1	224.94	264.35	1108.3	462.52	269.64	1104.3	330.8	252.14	1076.1	394.87	439.86	1165.9	184.87	463.72	1207.2	587.17	421.71	971.9	183.22	425.73	989.99	617.34	437.68	579.18	545.47	466.91	580.7	415.68	585.99	576.97	373.04	551.17	607.87	221.17	590.03	66.417	451.11	456.12	77.803	237.66	504.87	55.557	403.22	382.87	91.502	305.51	335.29	111.99	185.91	475.65	46.693	538.22	367.51	119.85	509.31	374.35	123.93	405.67	318.34	228.82	312.54	280.11	241.52	251.08	189.22	240.69	305.65	265.21	94.331	453.74	176.27	215.4	272.95	270.06	70.668	488.58	192.72	203.39	333.85	273.06	66.665	427.19	332.7	410.41	545.96	402.84	395.52	561	399.6	322.06	541.77	342.77	328.69	534.14	389.01	846.68	592.31	457.75	868.81	602.68	465.53	777.79	591.61	400.45	758.45	579.01	550.04	513.35	225.17	501.64	541.03	222.53	465.66	489.1	231.85	516	468.59	232.36	535.2	852.32	216.54	467.32	838.72	194.79	498.77	769.15	202.64	560.79	782.66	221.26
237	0.98652	727.35	1766.1	336.69	519.42	1573.5	594.96	462.97	1567.1	137.66	493.14	1102	578.53	479.28	1053.3	224.96	269.38	1109.4	462	274.91	1105.3	330.34	257.28	1077.2	394.33	445.43	1167.1	184.82	468.6	1208.3	587.22	427.43	973.06	183.04	430.04	990.82	617.13	439.1	579.93	545.31	468.45	581.27	415.53	592.56	579.15	373.55	557.79	609.11	221.45	590.16	66.342	451.13	474.21	77.175	237.87	505.05	55.528	403.24	400.33	89.318	305.29	352.96	108.62	185.4	475.86	46.738	538.2	367.99	120.63	509.31	374.91	124.63	405.68	332.73	225.16	311.87	294.57	237.02	250.19	203.41	234.18	304.19	265.68	95.618	453.72	191.23	208.54	271.49	270.38	71.912	488.6	207.62	196.97	332.44	273.22	67.889	427.16	333.68	411.41	545.74	403.75	396.36	560.89	400.37	322.9	541.68	343.6	329.65	534	392.38	847.85	592.01	461.37	869.5	602.49	468.41	778.42	591.41	403.22	759.54	578.73	558.65	514.64	225.5	509.68	541.23	222.57	474.82	488.54	231.74	525.57	469.14	232.54	541.29	853.9	216.68	473.52	840.01	194.7	505.18	770.59	202.71	567.07	784.32	221.54
238	0.9907	732.45	1767.1	336.11	524.43	1574.7	594.69	468.03	1567.9	137.42	497.92	1102.7	578.6	484.73	1054.5	224.97	274.4	1110.5	461.44	280.18	1106.3	329.84	262.42	1078.2	393.75	451.03	1168.2	184.76	473.45	1209.4	587.24	433.14	974.17	182.86	434.33	991.64	616.91	440.53	580.68	545.16	470.01	581.85	415.38	599	581.22	374.05	564.26	610.26	221.74	590.29	66.27	451.14	492.39	76.692	238.04	505.24	55.499	403.27	417.91	87.219	305.06	370.75	105.35	184.89	476.07	46.783	538.18	368.48	121.42	509.31	375.49	125.35	405.69	347.21	221.49	311.23	309.15	232.51	249.34	217.77	227.59	302.78	266.16	96.922	453.7	206.37	201.63	270.09	270.72	73.171	488.61	222.71	190.5	331.08	273.39	69.133	427.15	334.67	412.43	545.52	404.66	397.22	560.79	401.15	323.75	541.59	344.44	330.63	533.87	395.76	849.02	591.7	464.96	870.18	602.3	471.28	779.05	591.21	406	760.62	578.44	567.15	515.87	225.83	517.62	541.36	222.63	483.91	487.93	231.64	535.06	469.65	232.71	547.31	855.4	216.82	479.67	841.26	194.61	511.51	771.97	202.79	573.27	785.89	221.82
239	0.99488	737.55	1768	335.53	529.42	1576	594.42	473.09	1568.8	137.18	502.69	1103.4	578.67	490.19	1055.6	224.98	279.42	1111.5	460.85	285.46	1107.2	329.31	267.56	1079.2	393.13	456.66	1169.3	184.7	478.27	1210.5	587.23	438.86	975.24	182.67	438.59	992.45	616.67	441.97	581.45	545.01	471.59	582.44	415.25	605.3	583.17	374.54	570.59	611.31	222.03	590.42	66.202	451.16	510.63	76.362	238.2	505.43	55.47	403.29	435.61	85.215	304.83	388.66	102.18	184.39	476.29	46.831	538.16	368.97	122.22	509.31	376.08	126.08	405.71	361.79	217.81	310.6	323.84	228.01	248.51	232.31	220.95	301.41	266.66	98.237	453.68	221.7	194.68	268.73	271.06	74.444	488.62	237.99	183.98	329.77	273.6	70.394	427.14	335.67	413.45	545.3	405.59	398.09	560.69	401.94	324.62	541.51	345.29	331.61	533.73	399.15	850.18	591.38	468.52	870.86	602.12	474.16	779.68	591.01	408.78	761.7	578.16	575.53	517.06	226.16	525.46	541.42	222.7	492.93	487.26	231.55	544.46	470.13	232.89	553.25	856.82	216.98	485.76	842.45	194.52	517.76	773.28	202.89	579.39	787.37	222.11
240	0.99906	742.65	1768.9	334.94	534.39	1577.2	594.13	478.15	1569.6	136.92	507.43	1104	578.72	495.66	1056.7	224.99	284.44	1112.5	460.21	290.75	1108.2	328.75	272.7	1080.2	392.48	462.31	1170.3	184.63	483.06	1211.5	587.18	444.58	976.27	182.47	442.83	993.26	616.43	443.43	582.21	544.86	473.2	583.03	415.11	611.47	585.01	375.02	576.78	612.27	222.33	590.54	66.139	451.18	528.94	76.194	238.35	505.62	55.44	403.32	453.42	83.32	304.59	406.68	99.126	183.9	476.52	46.88	538.14	369.46	123.04	509.31	376.69	126.81	405.72	376.46	214.15	309.98	338.64	223.54	247.72	247.01	214.27	300.09	267.16	99.56	453.66	237.22	187.7	267.43	271.43	75.728	488.62	253.45	177.44	328.49	273.83	71.668	427.14	336.69	414.48	545.08	406.53	398.96	560.58	402.74	325.49	541.43	346.16	332.61	533.6	402.54	851.33	591.06	472.06	871.53	601.94	477.03	780.31	590.81	411.56	762.77	577.87	583.81	518.2	226.49	533.21	541.41	222.77	501.9	486.53	231.47	553.78	470.57	233.07	559.13	858.16	217.15	491.8	843.58	194.43	523.94	774.51	202.99	585.43	788.77	222.4
241	1.0032	747.75	1769.8	334.35	539.33	1578.4	593.83	483.2	1570.4	136.67	512.17	1104.7	578.75	501.15	1057.7	224.98	289.46	1113.5	459.55	296.05	1109.1	328.16	277.84	1081.2	391.8	467.98	1171.3	184.55	487.83	1212.5	587.11	450.3	977.25	182.26	447.05	994.06	616.18	444.89	582.99	544.71	474.82	583.62	414.99	617.51	586.73	375.49	582.85	613.13	222.64	590.66	66.08	451.2	547.29	76.198	238.48	505.82	55.408	403.35	471.34	81.546	304.36	424.8	96.202	183.42	476.75	46.933	538.12	369.96	123.86	509.3	377.3	127.56	405.72	391.23	210.51	309.38	353.54	219.09	246.95	261.89	207.55	298.81	267.68	100.89	453.64	252.92	180.72	266.18	271.8	77.02	488.62	269.1	170.88	327.26	274.09	72.952	427.14	337.72	415.51	544.86	407.49	399.84	560.47	403.56	326.37	541.35	347.04	333.61	533.46	405.94	852.46	590.74	475.59	872.19	601.76	479.91	780.92	590.61	414.36	763.84	577.58	591.98	519.29	226.82	540.87	541.32	222.86	510.8	485.75	231.39	563.02	470.97	233.25	564.95	859.4	217.32	497.78	844.65	194.34	530.03	775.68	203.1	591.41	790.07	222.7
242	1.0074	752.85	1770.6	333.75	544.26	1579.6	593.53	488.25	1571.2	136.4	516.89	1105.4	578.77	506.66	1058.7	224.97	294.47	1114.4	458.85	301.35	1110	327.54	282.98	1082.1	391.09	473.67	1172.3	184.45	492.58	1213.5	586.99	456.01	978.19	182.04	451.27	994.85	615.93	446.37	583.76	544.56	476.47	584.21	414.86	623.43	588.32	375.95	588.78	613.89	222.95	590.77	66.025	451.21	565.68	76.381	238.61	506.02	55.375	403.39	489.34	79.904	304.12	443.02	93.418	182.97	476.99	46.988	538.1	370.47	124.68	509.29	377.92	128.31	405.73	406.1	206.92	308.79	368.55	214.69	246.22	276.93	200.83	297.57	268.22	102.22	453.61	268.8	173.74	264.97	272.18	78.318	488.6	284.93	164.32	326.07	274.38	74.243	427.15	338.77	416.55	544.63	408.47	400.72	560.35	404.38	327.26	541.27	347.94	334.61	533.32	409.34	853.58	590.41	479.09	872.83	601.57	482.79	781.53	590.4	417.16	764.9	577.28	600.05	520.32	227.14	548.44	541.15	222.95	519.65	484.91	231.32	572.18	471.33	233.44	570.71	860.56	217.5	503.7	845.66	194.25	536.05	776.77	203.21	597.31	791.29	222.99
